<svg xmlns="http://www.w3.org/2000/svg" version="1.1" xmlns:xlink="http://www.w3.org/1999/xlink" width="1000" height="1000"><g clip-path="url(#SvgjsClipPath1067)"><rect width="1000" height="1000" fill="#0952f5"></rect><g transform="matrix(3.5,0,0,3.5,150,150)"><svg xmlns="http://www.w3.org/2000/svg" version="1.1" xmlns:xlink="http://www.w3.org/1999/xlink" width="200" height="200"><svg xmlns="http://www.w3.org/2000/svg" version="1.1" xmlns:xlink="http://www.w3.org/1999/xlink" viewBox="0 0 200 200"><rect width="200" height="200" fill="url('#gradient')"></rect><defs><linearGradient id="gradient" gradientTransform="rotate(45 0.5 0.5)"><stop offset="0%" stop-color="#dee90b"></stop><stop offset="100%" stop-color="#d9e241"></stop></linearGradient><clipPath id="SvgjsClipPath1067"><rect width="1000" height="1000" x="0" y="0" rx="350" ry="350"></rect></clipPath></defs><g><g fill="#1b3855" transform="matrix(3.2838301716350498,0,0,3.2838301716350498,25.473161634950884,123.35228954873435)" stroke="#0e5278" stroke-width="0.2"><path d="M1.07-14.22L5.58-14.22L8.75-4.33L11.91-14.22L16.43-14.22L16.43 0L12.99 0L12.99-3.32L13.32-10.12L9.88 0L7.62 0L4.17-10.13L4.50-3.32L4.50 0L1.07 0L1.07-14.22ZM26.70-4.81L30.11-4.81Q30.04-3.33 29.31-2.19Q28.57-1.05 27.25-0.43Q25.93 0.20 24.23 0.20L24.23 0.20Q21.43 0.20 19.81-1.63Q18.20-3.46 18.20-6.79L18.20-6.79L18.20-7.49Q18.20-9.58 18.93-11.15Q19.66-12.71 21.03-13.57Q22.39-14.42 24.19-14.42L24.19-14.42Q26.78-14.42 28.35-13.06Q29.92-11.70 30.14-9.31L30.14-9.31L26.72-9.31Q26.68-10.61 26.06-11.17Q25.45-11.74 24.19-11.74L24.19-11.74Q22.91-11.74 22.31-10.78Q21.72-9.82 21.69-7.72L21.69-7.72L21.69-6.72Q21.69-4.44 22.26-3.47Q22.83-2.49 24.23-2.49L24.23-2.49Q25.41-2.49 26.04-3.05Q26.66-3.60 26.70-4.81L26.70-4.81ZM40.63 0L39.80-2.66L35.11-2.66L34.29 0L30.63 0L35.84-14.22L39.06-14.22L44.32 0L40.63 0ZM37.45-10.23L35.93-5.30L38.98-5.30L37.45-10.23Z"></path></g></g></svg></svg></g></g></svg>